<svg id="visual" viewBox="0 0 900 600" width="900" height="600" xmlns="http://www.w3.org/2000/svg" xmlns:xlink="http://www.w3.org/1999/xlink" version="1.1"><g stroke-width="1" stroke-linejoin="bevel"><path d="M499 270L628 201L505 174Z" fill="#0071c2" stroke="#0071c2"></path><path d="M499 270L573 337L628 201Z" fill="#00408d" stroke="#00408d"></path><path d="M669 297L676 191L628 201Z" fill="#003b87" stroke="#003b87"></path><path d="M588 73L475 95L505 174Z" fill="#0052a1" stroke="#0052a1"></path><path d="M573 337L669 297L628 201Z" fill="#003580" stroke="#003580"></path><path d="M588 73L505 174L628 201Z" fill="#006bbb" stroke="#006bbb"></path><path d="M505 174L362 209L499 270Z" fill="#0064b5" stroke="#0064b5"></path><path d="M676 191L588 73L628 201Z" fill="#00408d" stroke="#00408d"></path><path d="M499 270L536 385L573 337Z" fill="#004694" stroke="#004694"></path><path d="M573 337L622 421L669 297Z" fill="#005eae" stroke="#005eae"></path><path d="M475 95L362 209L505 174Z" fill="#004c9a" stroke="#004c9a"></path><path d="M499 270L417 430L536 385Z" fill="#0052a1" stroke="#0052a1"></path><path d="M362 209L367 273L499 270Z" fill="#0052a1" stroke="#0052a1"></path><path d="M536 385L622 421L573 337Z" fill="#0058a8" stroke="#0058a8"></path><path d="M685 0L580 0L588 73Z" fill="#006bbb" stroke="#006bbb"></path><path d="M588 73L470 0L475 95Z" fill="#0058a8" stroke="#0058a8"></path><path d="M833 207L732 80L676 191Z" fill="#0071c2" stroke="#0071c2"></path><path d="M676 191L732 80L588 73Z" fill="#0071c2" stroke="#0071c2"></path><path d="M580 0L470 0L588 73Z" fill="#004694" stroke="#004694"></path><path d="M475 95L374 68L362 209Z" fill="#00408d" stroke="#00408d"></path><path d="M433 0L374 68L475 95Z" fill="#0058a8" stroke="#0058a8"></path><path d="M622 421L713 419L669 297Z" fill="#0064b5" stroke="#0064b5"></path><path d="M669 297L833 207L676 191Z" fill="#0071c2" stroke="#0071c2"></path><path d="M367 273L417 430L499 270Z" fill="#005eae" stroke="#005eae"></path><path d="M536 385L574 521L622 421Z" fill="#0064b5" stroke="#0064b5"></path><path d="M622 421L667 464L713 419Z" fill="#0064b5" stroke="#0064b5"></path><path d="M470 0L433 0L475 95Z" fill="#0058a8" stroke="#0058a8"></path><path d="M732 80L685 0L588 73Z" fill="#006bbb" stroke="#006bbb"></path><path d="M574 521L667 464L622 421Z" fill="#00408d" stroke="#00408d"></path><path d="M270 239L318 333L367 273Z" fill="#0058a8" stroke="#0058a8"></path><path d="M367 273L318 333L417 430Z" fill="#0071c2" stroke="#0071c2"></path><path d="M270 239L367 273L362 209Z" fill="#006bbb" stroke="#006bbb"></path><path d="M833 323L833 207L669 297Z" fill="#0064b5" stroke="#0064b5"></path><path d="M732 80L764 0L685 0Z" fill="#006bbb" stroke="#006bbb"></path><path d="M263 0L318 81L374 68Z" fill="#005eae" stroke="#005eae"></path><path d="M374 68L318 81L362 209Z" fill="#004694" stroke="#004694"></path><path d="M833 207L799 71L732 80Z" fill="#004c9a" stroke="#004c9a"></path><path d="M318 81L270 239L362 209Z" fill="#0064b5" stroke="#0064b5"></path><path d="M812 431L833 323L713 419Z" fill="#00408d" stroke="#00408d"></path><path d="M713 419L833 323L669 297Z" fill="#004694" stroke="#004694"></path><path d="M525 525L574 521L536 385Z" fill="#004694" stroke="#004694"></path><path d="M318 333L373 460L417 430Z" fill="#003b87" stroke="#003b87"></path><path d="M417 430L525 525L536 385Z" fill="#003580" stroke="#003580"></path><path d="M274 362L373 460L318 333Z" fill="#004c9a" stroke="#004c9a"></path><path d="M373 460L525 525L417 430Z" fill="#004694" stroke="#004694"></path><path d="M799 71L764 0L732 80Z" fill="#0052a1" stroke="#0052a1"></path><path d="M213 270L274 362L318 333Z" fill="#0064b5" stroke="#0064b5"></path><path d="M791 495L812 431L713 419Z" fill="#00408d" stroke="#00408d"></path><path d="M791 495L713 419L667 464Z" fill="#00408d" stroke="#00408d"></path><path d="M900 286L900 209L833 207Z" fill="#003b87" stroke="#003b87"></path><path d="M833 207L900 117L799 71Z" fill="#0071c2" stroke="#0071c2"></path><path d="M799 71L900 0L764 0Z" fill="#0064b5" stroke="#0064b5"></path><path d="M900 286L833 207L833 323Z" fill="#004694" stroke="#004694"></path><path d="M900 372L900 286L833 323Z" fill="#003b87" stroke="#003b87"></path><path d="M191 211L213 270L270 239Z" fill="#0071c2" stroke="#0071c2"></path><path d="M270 239L213 270L318 333Z" fill="#005eae" stroke="#005eae"></path><path d="M723 600L791 495L667 464Z" fill="#006bbb" stroke="#006bbb"></path><path d="M812 431L900 372L833 323Z" fill="#006bbb" stroke="#006bbb"></path><path d="M900 209L900 117L833 207Z" fill="#005eae" stroke="#005eae"></path><path d="M318 81L191 211L270 239Z" fill="#00408d" stroke="#00408d"></path><path d="M433 0L263 0L374 68Z" fill="#0052a1" stroke="#0052a1"></path><path d="M318 81L161 136L191 211Z" fill="#003580" stroke="#003580"></path><path d="M900 539L900 372L812 431Z" fill="#00408d" stroke="#00408d"></path><path d="M413 600L525 525L373 460Z" fill="#004c9a" stroke="#004c9a"></path><path d="M413 600L498 600L525 525Z" fill="#003580" stroke="#003580"></path><path d="M525 525L498 600L574 521Z" fill="#00408d" stroke="#00408d"></path><path d="M574 521L627 600L667 464Z" fill="#0071c2" stroke="#0071c2"></path><path d="M498 600L627 600L574 521Z" fill="#004c9a" stroke="#004c9a"></path><path d="M274 362L267 499L373 460Z" fill="#003b87" stroke="#003b87"></path><path d="M187 429L267 499L274 362Z" fill="#006bbb" stroke="#006bbb"></path><path d="M187 429L274 362L213 270Z" fill="#004c9a" stroke="#004c9a"></path><path d="M323 600L413 600L373 460Z" fill="#004c9a" stroke="#004c9a"></path><path d="M263 0L161 136L318 81Z" fill="#0064b5" stroke="#0064b5"></path><path d="M76 376L187 429L213 270Z" fill="#003580" stroke="#003580"></path><path d="M627 600L723 600L667 464Z" fill="#004c9a" stroke="#004c9a"></path><path d="M791 495L900 539L812 431Z" fill="#0071c2" stroke="#0071c2"></path><path d="M900 117L900 0L799 71Z" fill="#005eae" stroke="#005eae"></path><path d="M77 301L213 270L191 211Z" fill="#003b87" stroke="#003b87"></path><path d="M187 429L207 489L267 499Z" fill="#00408d" stroke="#00408d"></path><path d="M267 499L323 600L373 460Z" fill="#0071c2" stroke="#0071c2"></path><path d="M263 0L179 0L161 136Z" fill="#004694" stroke="#004694"></path><path d="M171 600L323 600L267 499Z" fill="#0058a8" stroke="#0058a8"></path><path d="M723 600L830 600L791 495Z" fill="#0058a8" stroke="#0058a8"></path><path d="M830 600L900 539L791 495Z" fill="#003580" stroke="#003580"></path><path d="M187 429L129 493L207 489Z" fill="#004c9a" stroke="#004c9a"></path><path d="M161 136L76 227L191 211Z" fill="#0064b5" stroke="#0064b5"></path><path d="M62 83L76 227L161 136Z" fill="#003580" stroke="#003580"></path><path d="M76 227L77 301L191 211Z" fill="#0064b5" stroke="#0064b5"></path><path d="M0 366L76 376L77 301Z" fill="#00408d" stroke="#00408d"></path><path d="M77 301L76 376L213 270Z" fill="#0064b5" stroke="#0064b5"></path><path d="M207 489L171 600L267 499Z" fill="#0071c2" stroke="#0071c2"></path><path d="M179 0L106 0L161 136Z" fill="#005eae" stroke="#005eae"></path><path d="M76 376L129 493L187 429Z" fill="#003580" stroke="#003580"></path><path d="M830 600L900 600L900 539Z" fill="#0058a8" stroke="#0058a8"></path><path d="M106 0L62 83L161 136Z" fill="#0064b5" stroke="#0064b5"></path><path d="M76 227L0 273L77 301Z" fill="#0052a1" stroke="#0052a1"></path><path d="M129 493L171 600L207 489Z" fill="#0071c2" stroke="#0071c2"></path><path d="M138 600L171 600L129 493Z" fill="#003b87" stroke="#003b87"></path><path d="M0 161L0 273L76 227Z" fill="#0052a1" stroke="#0052a1"></path><path d="M0 600L138 600L129 493Z" fill="#004c9a" stroke="#004c9a"></path><path d="M0 113L0 161L62 83Z" fill="#0058a8" stroke="#0058a8"></path><path d="M62 83L0 161L76 227Z" fill="#0058a8" stroke="#0058a8"></path><path d="M0 488L129 493L76 376Z" fill="#0058a8" stroke="#0058a8"></path><path d="M0 0L0 113L62 83Z" fill="#0064b5" stroke="#0064b5"></path><path d="M0 273L0 366L77 301Z" fill="#0071c2" stroke="#0071c2"></path><path d="M106 0L0 0L62 83Z" fill="#0071c2" stroke="#0071c2"></path><path d="M0 366L0 488L76 376Z" fill="#006bbb" stroke="#006bbb"></path><path d="M0 488L0 600L129 493Z" fill="#00408d" stroke="#00408d"></path></g></svg>